<svg width="100" height="100" viewBox="0 0 101 96" fill="none" xmlns="http://www.w3.org/2000/svg">
<path d="M0 24L51 0L101 24V72.48L51 96L0 71.04V24Z" fill="white"/>
<path d="M9 27.759L50.5 8L92 27.759V67.2771L50.5 88L9 67.2771V27.759Z" fill="black"/>
<path d="M27.3721 36.7656V55.2637C27.3721 56.3809 27.168 57.3262 26.7598 58.0996C26.3516 58.8516 25.8037 59.4639 25.1162 59.9365C24.4287 60.3877 23.6338 60.71 22.7314 60.9033C21.8506 61.0752 20.9375 61.1611 19.9922 61.1611C19.5195 61.1611 18.9609 61.1074 18.3164 61C17.6934 60.9141 17.0381 60.7744 16.3506 60.5811C15.6846 60.3662 15.04 60.1299 14.417 59.8721C13.7939 59.6143 13.2676 59.3242 12.8379 59.002L14.4814 56.3916C14.6963 56.542 14.9971 56.7031 15.3838 56.875C15.792 57.0254 16.2324 57.1758 16.7051 57.3262C17.1777 57.4551 17.6719 57.5732 18.1875 57.6807C18.7031 57.7881 19.1865 57.8418 19.6377 57.8418C20.7764 57.8418 21.6787 57.627 22.3447 57.1973C23.0322 56.7461 23.3975 55.9941 23.4404 54.9414V36.7656H27.3721ZM33.2695 37.249H37.2012V61H33.2695V37.249ZM47.127 50.3008H38.5225V47.6582H47.127V50.3008ZM38.5225 58.0674H48.126V61H38.5225V58.0674ZM48.126 37.249V40.1816H38.5225V37.249H48.126ZM53.5078 37.249H57.4395V61H53.5078V37.249ZM67.3652 50.3008H58.7607V47.6582H67.3652V50.3008ZM68.3643 37.249V40.1816H58.7607V37.249H68.3643ZM72.5537 37.249H76.4854V61H72.5537V37.249ZM86.4111 50.3008H77.8066V47.6582H86.4111V50.3008ZM87.4102 37.249V40.1816H77.8066V37.249H87.4102Z" fill="white"/>
</svg>
